<svg version="1" xmlns="http://www.w3.org/2000/svg" width="682.667" height="682.667" viewBox="0 0 512.000000 512.000000"><path d="M132.2 199.3c-1.5 1.6-3.4 6.9-5.7 16.1-4.9 18.9-15.1 50.3-16.1 49.4-.8-.9-6.5-25.4-8.9-38.3C97 201.8 95.4 198 90 198c-5.5 0-8.2 5.6-12 25.2-1.7 8.4-4.8 21.8-6.9 29.8-5 18.9-6.1 24.1-6.1 29.9 0 5.4 2 8.1 6.2 8.1 3.9 0 5.7-3 7.7-13.2 1-5.2 3.8-17.9 6.2-28.2l4.4-18.9 1.3 6.4c2.4 11.6 10.4 43.3 12 47.2 3.1 8 10.7 7.6 15-.9.6-1.1 4.7-13 9.2-26.4 4.5-13.5 8.5-25 8.9-25.7.3-.7 1.5 3.6 2.5 9.5 4.9 29.2 8.9 45.8 11.8 48.9 3.9 4.1 10.8 2 10.8-3.3 0-1.1-1.6-7.6-3.5-14.5-3.8-13.5-7.5-31.8-10-49.9-2-14.2-3.2-18.7-5.7-22.2s-6.6-3.7-9.6-.5zM242.6 225.8c-1.1 2.2-1.4 8.3-1.3 31.9.2 27.1.3 29.2 2.1 31.2 2.4 2.6 5.8 2.7 8.1.1 1.4-1.6 1.6-2.9 1-7.5-.3-3.1-.3-10.2.1-15.8l.7-10.2 7.6-7.7c4.2-4.3 8.4-7.8 9.3-7.8 1.9 0 2.8 3.8 2.9 12.4.1 12.9 3.4 40.7 4.9 41.6 2.3 1.5 5.7 1.2 7.4-.6 2-2 2-5.9-.1-27.3l-1.7-17.4 3.2-2.7c1.7-1.4 5.3-3.7 7.8-4.9 4.2-2.1 4.7-2.2 6.3-.7 2.8 2.5 4 8.2 5.6 25.3 2 21.6 2.4 24 4.1 25.8 2 2 5.9 1.9 8-.2 1.9-1.9 1.8-3.7-1.6-33.3-2.3-18.9-3.7-24.4-7.5-28-5.1-4.8-18-3.4-23.5 2.5l-2.3 2.5-3.2-3.8c-3-3.4-3.7-3.7-8.8-3.7-4.7 0-6.1.5-9.4 3.1-2.1 1.7-5.3 5-7.1 7.4l-3.3 4.2.3-7.5c.3-6.2 0-7.8-1.6-9.6-2.7-3-6.2-2.7-8 .7zM352.7 224.5c-13.1 5-21.5 20.9-20.5 39 .7 12 5.3 19.3 15.8 24.5 6.2 3.1 18.6 3.9 26.5 1.5 11.4-3.3 18.5-8.5 18.5-13.5 0-5.5-6.6-8-9.5-3.6-3.4 5.2-17.6 8.7-26.5 6.6-5.3-1.3-13-6.2-13-8.3 0-.6 7.6-4.8 16.8-9.2 20.6-9.9 26.2-14.5 26.2-21.7 0-5.7-3.1-10.5-8.9-13.7-5.5-3-19.4-3.9-25.4-1.6zm20.4 12c1.6.9 2.9 2 2.9 2.5 0 1.4-6 5-20.8 12.4l-13.1 6.6 1.5-5.3c3.8-13.1 11.1-19.4 21.2-18.2 3 .3 6.7 1.2 8.3 2zM432.5 225c-2.7 1-8.3 2.8-12.2 4-11.3 3.2-17.3 9.7-17.3 18.5 0 8.1 3.7 11.1 17.8 14.3 9.3 2.2 12.9 4.2 14.3 7.9 1.8 4.8-.3 7-8.4 8.9-4.6 1.1-13.3-.5-17.2-3.2-2-1.3-4.4-2.4-5.4-2.4-2.6 0-5.1 3.2-5.1 6.4 0 6.9 12.5 12.3 26.3 11.4 13.5-.9 20.7-6.3 21.5-16.3 1.1-13-8.8-21.7-28.5-25-2.4-.4-4.3-1.1-4.3-1.7 0-2.5 6.3-6.6 14.1-9l8.4-2.6 1 3.1c.5 1.6 1.7 3.5 2.6 4 2.3 1.4 6.7 0 7.4-2.4 1.1-3.2-.5-14.7-2.2-16.4-1.9-1.9-6.5-1.7-12.8.5zM189.4 227.3c-11.8 5.7-19.1 20.4-18.2 37.1.8 17.6 13.2 27.5 33.3 26.4 17.4-.9 32.1-12.4 24.5-19.3-2.4-2.2-6.5-1.4-8.1 1.6-2.1 4-14.3 7.4-22.6 6.4-5.6-.7-14.6-5.7-15-8.5-.2-1.1 4.2-3.6 14.9-8.5 22.3-10.2 26.8-13.9 26.8-21.5 0-9.6-7.8-15.2-21.9-15.7-7.5-.4-9.3-.1-13.7 2zm21.6 11.2c1.7.9 3 2.2 2.7 2.8-.5 1.8-31.1 17.1-31.5 15.8-.7-2.2 3.1-11.3 6.1-14.8 1.8-2 4.5-4.2 6.2-5 3.7-1.7 12.1-1.1 16.5 1.2z"/></svg>